<mxfile host="app.diagrams.net" modified="2024-03-23T20:52:20.482Z" agent="Mozilla/5.0 (Macintosh; Intel Mac OS X 10_15_7) AppleWebKit/537.36 (KHTML, like Gecko) Chrome/123.0.0.0 Safari/537.36" etag="b5ZWqjo5eNwuyjh9PwNb" version="24.1.0" type="device">
  <diagram name="Page-1" id="N7DXhb3zK6o03sqgJfEO">
    <mxGraphModel dx="1592" dy="775" grid="1" gridSize="10" guides="1" tooltips="1" connect="1" arrows="1" fold="1" page="1" pageScale="1" pageWidth="1100" pageHeight="850" math="1" shadow="0">
      <root>
        <mxCell id="0" />
        <mxCell id="1" parent="0" />
        <mxCell id="2v4hUn9V6mwEBlPuq6K4-2" value="&lt;b&gt;&amp;nbsp;Results Distribution$$R_{BP} = BPois(\lambda_1, \lambda_2)$$&lt;/b&gt;" style="rounded=1;whiteSpace=wrap;html=1;" vertex="1" parent="1">
          <mxGeometry x="190" y="195" width="160" height="140" as="geometry" />
        </mxCell>
        <mxCell id="2v4hUn9V6mwEBlPuq6K4-4" value="&lt;div&gt;&lt;b&gt;Draw Inflation Matrix&lt;/b&gt;&lt;/div&gt;$$D = \begin{bmatrix} 1.1 &amp;amp; 1 &amp;amp; 1 &amp;amp; ... \\ 1 &amp;amp; 1.1 &amp;amp; 1 &amp;amp; ... \\ 1 &amp;amp; 1 &amp;amp; 1.1 &amp;amp; ... \\ ... &amp;amp; ... &amp;amp; ... &amp;amp; ... \end{bmatrix}$$" style="rounded=1;whiteSpace=wrap;html=1;" vertex="1" parent="1">
          <mxGeometry x="460" y="195" width="180" height="140" as="geometry" />
        </mxCell>
        <mxCell id="2v4hUn9V6mwEBlPuq6K4-15" style="edgeStyle=orthogonalEdgeStyle;rounded=0;orthogonalLoop=1;jettySize=auto;html=1;entryX=0.5;entryY=0;entryDx=0;entryDy=0;" edge="1" parent="1" source="2v4hUn9V6mwEBlPuq6K4-5" target="2v4hUn9V6mwEBlPuq6K4-8">
          <mxGeometry relative="1" as="geometry" />
        </mxCell>
        <mxCell id="2v4hUn9V6mwEBlPuq6K4-5" value="&lt;div&gt;&lt;b&gt;BPois Distribution x Draw Inflation Matrix&lt;/b&gt;&lt;/div&gt;$$R^* = R_{BP} * D$$" style="rounded=1;whiteSpace=wrap;html=1;" vertex="1" parent="1">
          <mxGeometry x="690" y="197.5" width="280" height="72.5" as="geometry" />
        </mxCell>
        <mxCell id="2v4hUn9V6mwEBlPuq6K4-8" value="&lt;div&gt;&lt;span style=&quot;background-color: initial;&quot;&gt;&lt;b&gt;Final (Rescaled) Results Distribution&amp;nbsp;&lt;/b&gt;$$R^* * \frac{1}{\sum{R^*}} = R$$&lt;/span&gt;&lt;br&gt;&lt;/div&gt;" style="rounded=1;whiteSpace=wrap;html=1;" vertex="1" parent="1">
          <mxGeometry x="690" y="300" width="280" height="130" as="geometry" />
        </mxCell>
        <mxCell id="2v4hUn9V6mwEBlPuq6K4-11" value="multiplied by" style="text;html=1;align=center;verticalAlign=middle;whiteSpace=wrap;rounded=0;" vertex="1" parent="1">
          <mxGeometry x="350" y="220" width="110" height="30" as="geometry" />
        </mxCell>
        <mxCell id="2v4hUn9V6mwEBlPuq6K4-12" value="=" style="text;html=1;align=center;verticalAlign=middle;whiteSpace=wrap;rounded=0;" vertex="1" parent="1">
          <mxGeometry x="610" y="220" width="110" height="30" as="geometry" />
        </mxCell>
        <mxCell id="2v4hUn9V6mwEBlPuq6K4-16" value="&lt;font style=&quot;font-size: 24px;&quot;&gt;&lt;b&gt;Generating the Final Results Distribution from Predicted Scores&lt;/b&gt;&lt;/font&gt;" style="text;html=1;align=center;verticalAlign=middle;whiteSpace=wrap;rounded=0;" vertex="1" parent="1">
          <mxGeometry x="170" y="130" width="760" height="30" as="geometry" />
        </mxCell>
      </root>
    </mxGraphModel>
  </diagram>
</mxfile>
